<svg preserveAspectRatio="none" overflow="visible" style="display: block;" width="24" height="23.8967" viewBox="0 0 24 23.8967" fill="none" xmlns="http://www.w3.org/2000/svg">
<g id="Social link Max icon">
<path id="Vector" d="M6.85998 22.1999C5.96136 23.1067 4.8794 23.6596 3.6141 23.8586C3.03324 23.9511 2.2711 23.9055 1.91593 23.3776C1.80987 23.2206 1.74657 22.9296 1.72601 22.5045C1.64092 20.7373 1.24998 19.4288 0.720925 17.4359C0.289292 15.8072 0.0504552 14.1131 0.00441436 12.3537C-0.117676 7.70196 2.29947 3.55829 6.42341 1.41245C13.073 -2.04554 21.1039 1.07948 23.4162 8.23842C24.8554 12.6904 23.5925 17.7023 20.0827 20.8076C17.5785 23.0233 14.6047 24.0169 11.1615 23.7883C10.4635 23.7423 9.86538 23.6354 9.36715 23.4677C8.51128 23.1791 7.75654 22.7031 7.00057 22.1863C6.97906 22.1718 6.95322 22.1652 6.92753 22.1677C6.90185 22.1702 6.87795 22.1816 6.85998 22.1999ZM8.88865 16.9858C10.2107 17.8285 11.5779 18.1323 12.9904 17.8971C15.1547 17.537 16.9664 16.0695 17.7421 14.0309C19.2565 10.0537 16.1968 5.9409 12.0692 5.88047C8.69873 5.83237 6.48754 8.4419 6.04727 11.5854C5.86147 12.914 5.89888 14.3138 6.1595 15.7846C6.26926 16.4024 6.50357 17.4815 6.99563 17.9748C7.03228 18.0114 7.07839 18.0371 7.12874 18.0489C7.17909 18.0606 7.23166 18.0581 7.28051 18.0414C7.82684 17.8552 8.31026 17.3952 8.73696 17.0006C8.75716 16.9815 8.78304 16.9698 8.81052 16.9671C8.838 16.9644 8.8655 16.971 8.88865 16.9858Z" fill="#F1F2F4"/>
</g>
</svg>
